# xmcd
# 
# Track frame offsets:
#   150
#   18567
#   34015
#   50405
#   72757
#   89162
#   103282
#   118672
#   137757
#   156070
#   172084
#   191830
#   210090
#   223207
#   237992
# 
# Disc length: 3377 seconds
# 
# Revision: 2
# Processed by: cddbd v1.5.2PL0 Copyright (c) Steve Scherf et al.
# Submitted via: Synapstar 1.0 
# 
DISCID=df0d2f0f
DTITLE=Various Artist - 70's And 80's Country Vol 11 8517
DYEAR=1900
DGENRE=Country
TTITLE0=Kathy Mattea - Love At The Five And Dime
TTITLE1=Alabama - Southern Star
TTITLE2=Nitty Gritty Dirt Band - High Horse
TTITLE3=K T Oslin - Hey Bobby
TTITLE4=Tammy Wynette - You And Me
TTITLE5=Hank Williams Jr - I'm For Love
TTITLE6=Rodney Crowell - She's Crazy For Leavin'
TTITLE7=Oak Ridge Boys - It Takes A Little Rain To Make Love Grow
TTITLE8=Gary Morris - Leave Me Lonely
TTITLE9=Jerry Reed - Lord Mr Ford
TTITLE10=Marie Osmond - Read My Lips
TTITLE11=Paul Overstreet - Sowin' Love
TTITLE12=Buck Owens - Made In Japan
TTITLE13=Oak Ridge Boys - This Crazy Love
TTITLE14=Gene Watson - Should I Come Home Or Should I Go Crazy
EXTD=MediaType: Karaoke CD+G Producer: Sound Choice
EXTT0=
EXTT1=
EXTT2=
EXTT3=
EXTT4=
EXTT5=
EXTT6=
EXTT7=
EXTT8=
EXTT9=
EXTT10=
EXTT11=
EXTT12=
EXTT13=
EXTT14=
PLAYORDER=
